# xmcd
#
# Track frame offsets: 
#        150
#        10620
#        22080
#        35280
#        49950
#        70382
#        83890
#        102647
#        111235
#        122700
#        135030
#        145357
#        158557
#        170087
#        190410
#        203010
#        221615
#        244782
#        258567
#
# Disc length: 3704 seconds
#
# Revision: 1
# Processed by: cddbd v1.5.2PL0 Copyright (c) Steve Scherf et al.
# Submitted via: ExactAudioCopy v0.95a5
#
DISCID=120e7613
DTITLE=Cotton Club Singers - Négy gengszter(élõ, Budai Parkszínpad, 19
DTITLE=97.szept.6.)
DYEAR=1997
DGENRE=Jazz
TTITLE0=Nyitány: Take The "A" Train
TTITLE1=It Don't Mean A Thing
TTITLE2=Java Jive
TTITLE3=Undecided
TTITLE4=Route 66
TTITLE5=Chanson D'Amour
TTITLE6=As Time Goes By
TTITLE7=Seyahamba
TTITLE8=Viktória
TTITLE9=How High The Moon
TTITLE10=Felmegyek hozzád...
TTITLE11=Tuxedo Junction
TTITLE12=Hello Dolly
TTITLE13=Solitude
TTITLE14=Lady Is A Tramp
TTITLE15=Minnie The Moocher
TTITLE16=Michelle
TTITLE17=Operator
TTITLE18=Négy gengszter
EXTD=YEAR: 1997
EXTT0=
EXTT1=
EXTT2=
EXTT3=
EXTT4=
EXTT5=
EXTT6=
EXTT7=
EXTT8=
EXTT9=
EXTT10=
EXTT11=
EXTT12=
EXTT13=
EXTT14=
EXTT15=
EXTT16=
EXTT17=
EXTT18=
PLAYORDER=
